<?xml version="1.0" encoding="utf-8"?>
<!-- Generator: Adobe Illustrator 16.0.0, SVG Export Plug-In . SVG Version: 6.00 Build 0)  -->
<!DOCTYPE svg PUBLIC "-//W3C//DTD SVG 1.1//EN" "http://www.w3.org/Graphics/SVG/1.1/DTD/svg11.dtd">
<svg version="1.1" id="Capa_1" xmlns="http://www.w3.org/2000/svg" xmlns:xlink="http://www.w3.org/1999/xlink" x="0px" y="0px"
	 width="105.5px" height="182.565px" viewBox="0 0 105.5 182.565" enable-background="new 0 0 105.5 182.565" xml:space="preserve">
<path fill="#FFFFFF" d="M86.514,55.566C83.112,66.07,75.185,75.072,69.962,82.725C65.55,89.19,62.155,93.951,59.919,93.32
	c-4.882-1.375,2.447-17.921,3.135-38.279C63.79,33.161,80.803,2.596,84.945,3.764C89.273,4.982,94.181,31.883,86.514,55.566z"/>
<path fill="#E692BB" d="M80.926,52.372C75.961,69.989,65.574,88.951,61.703,87.86c-3.87-1.091,2.454-16.032,3.564-34.184
	C66.46,34.165,81.579,7.35,83.988,8.029C86.397,8.709,85.889,34.757,80.926,52.372z"/>
<path fill="#F8E9F0" d="M83.988,8.029c-0.154-0.043-0.37,0.053-0.637,0.275c1.157,4.585,1.1,3.918,0.078,8.266
	c-0.957,4.072-1.827,8.067-2.046,12.259c-0.192,3.695-0.509,7.386-0.989,11.056c-0.848,6.476-1.342,10.212-2.991,16.534
	c-1.179,4.514-3.19-4.2-4.731-7.834c-0.952,1.706-4.718,8.26-4.508,4.167c0.247-4.808,0.978-9.548,2.002-14.252
	c1.384-6.345,3.189-12.571,5.167-18.744c-4.784,10.698-9.462,24.049-10.065,33.92c-1.11,18.152-7.435,33.092-3.564,34.184
	c3.871,1.091,14.258-17.871,19.223-35.488C85.889,34.757,86.397,8.709,83.988,8.029z"/>
<path fill="#F4B4D0" d="M71.405,46.994c-0.342,3.178,2.204-1.472,3.264-2.062c2.222-1.236-0.498,10.347,1.119,9.261
	c2.355-1.582,2.335-11.614,4.809-28.947c1.604-11.241,1.857-13.761,1.012-13.875C79.558,14.487,74.172,21.22,71.405,46.994z"/>
<path fill="#FFFFFF" d="M44.612,53.472c-0.216-7.648-4.735-22.964-7.322-27.124c-3.401-3.51-6.399-2.435-11.324-0.883
	c-3.688,1.161-6.216,3.923-9.062,6.335c0.314,7.284,1.442,15.086,3.788,22.465c3.343,10.522,11.679,19.169,16.858,26.852
	c4.377,6.489,7.747,11.269,9.985,10.65C52.427,90.418,45.187,73.833,44.612,53.472z"/>
<path fill="#E692BB" d="M42.404,52.094c-0.449-8.09-3.372-17.588-6.81-25.891c-2.871-1.468-6.224-1.811-9.629-0.738
	c-1.172,0.369-2.224,0.903-3.21,1.534c0.704,7.84,2.02,16.536,3.999,23.707c4.867,17.643,15.15,36.661,19.028,35.592
	C49.66,85.227,43.416,70.252,42.404,52.094z"/>
<path fill="#F8E9F0" d="M42.404,52.094c-0.415-7.464-3.147-16.928-6.498-25.737c-0.351-0.19-0.71-0.359-1.074-0.515
	c1.029,3.651,1.967,7.331,2.757,11.049c0.999,4.708,1.704,9.453,1.924,14.263c0.188,4.093-3.541-2.482-4.485-4.192
	c-1.561,3.626-3.619,12.329-4.772,7.809c-1.617-6.332-2.09-10.07-2.901-16.55c-0.461-3.673-0.757-7.364-0.931-11.063
	c-0.026-0.599-0.07-1.192-0.125-1.785c-0.111,0.032-0.221,0.056-0.332,0.091c-1.172,0.369-2.224,0.903-3.21,1.534
	c0.704,7.84,2.02,16.536,3.999,23.707c4.867,17.643,15.15,36.661,19.028,35.592C49.66,85.227,43.416,70.252,42.404,52.094z"/>
<path fill="#F4B4D0" d="M32.872,25.189c-1.729-0.42-3.564-0.464-5.438-0.091c2.174,16.414,2.17,25.907,4.447,27.455
	c1.611,1.095-1.046-10.502,1.169-9.252c1.058,0.595,3.577,5.258,3.253,2.079C35.43,36.8,34.2,30.245,32.872,25.189z"/>
<path fill="#FFFFFF" d="M21.954,149.18c0,14.304,11.372,29.063,30.661,29.063c19.288,0,30.661-14.759,30.661-29.063
	S71.903,96.996,52.615,96.996C33.326,96.996,21.954,134.876,21.954,149.18z"/>
<path fill="#DDF1FC" d="M39.159,164.399c-0.185-5.244-4.781-26.047-13.683-34.653c-2.308,7.566-3.522,14.76-3.522,19.434
	c0,9.451,4.969,19.093,13.901,24.551C36.378,174.051,39.305,168.56,39.159,164.399z"/>
<path fill="#DDF1FC" d="M72.391,126.447c-0.079-5.504-14.764-7.71-14.764-7.71s7.777-10.01,10.549-12.639
	c9.688,12.132,15.101,33.215,15.101,43.082c0,9.819-5.361,19.848-14.961,25.174c-0.822,0.457-3.144-9.821-3.144-9.821
	s-0.086-3.923,1.771-8.757C74.461,136.208,72.416,128.215,72.391,126.447z"/>
<path fill="#FFFFFF" d="M11.123,96.56c0,12.987,15.31,26.385,41.276,26.385c25.968,0,41.279-13.398,41.279-26.385
	c0-12.986-15.312-47.376-41.279-47.376C26.433,49.184,11.123,83.574,11.123,96.56z"/>
<path fill="#DDF1FC" d="M66.615,121.449c8.807-1.96,15.675-5.698,20.287-10.274C80.36,109.292,67.242,120.72,66.615,121.449z"/>
<path fill="none" stroke="#563335" stroke-width="0.8388" stroke-linecap="round" stroke-miterlimit="10" d="M79.099,83.375
	c1.435-0.207,1.626-1.274,1.626-1.274"/>
<path fill="none" stroke="#563335" stroke-width="0.8388" stroke-linecap="round" stroke-miterlimit="10" d="M79.394,84.905
	c1.432,0.229,1.933-0.731,1.933-0.731"/>
<ellipse fill="#F5CFE0" cx="42.498" cy="93.369" rx="7.939" ry="2.761"/>
<ellipse fill="#F5CFE0" cx="75.465" cy="93.369" rx="7.939" ry="2.761"/>
<line fill="none" stroke="#563335" stroke-width="0.8388" stroke-linecap="round" stroke-miterlimit="10" x1="58.629" y1="98.264" x2="58.629" y2="103.162"/>
<g>
	<path fill="#E692BB" d="M63.894,93.049c0-1.348-2.357-2.44-5.265-2.44c-2.906,0-5.264,1.093-5.264,2.44
		c0,1.348,2.357,5.215,5.264,5.215C61.536,98.264,63.894,94.397,63.894,93.049z"/>
	<path fill="#C16F98" d="M53.777,94.433c0.674,1.395,2.109,3.159,3.85,3.68C57.514,96.288,55.217,93.191,53.777,94.433z"/>
	<path fill="#C16F98" d="M63.475,94.433c-0.674,1.395-2.108,3.159-3.849,3.68C59.74,96.288,62.036,93.191,63.475,94.433z"/>
	<path fill="#F8CFE1" d="M55.771,92.675c0,1.063,1.376,0,3.073,0c1.696,0,3.072,1.063,3.072,0c0-1.064-1.376-1.927-3.072-1.927
		C57.147,90.748,55.771,91.61,55.771,92.675z"/>
</g>
<path fill="none" stroke="#563335" stroke-width="0.8388" stroke-linecap="round" stroke-miterlimit="10" d="M51.813,105.462
	c3.889,3.009,6.815-2.301,6.815-2.301s3.288,5.884,7.247,2.301"/>
<g>
	<circle fill="#563335" cx="75.839" cy="84.558" r="3.769"/>
	<circle fill="#FFFFFF" cx="77.608" cy="84.395" r="0.985"/>
	<circle fill="#FFFFFF" cx="76.444" cy="85.853" r="0.492"/>
</g>
<path fill="none" stroke="#563335" stroke-width="0.8388" stroke-linecap="round" stroke-miterlimit="10" d="M39.225,83.375
	c-1.435-0.207-1.627-1.274-1.627-1.274"/>
<path fill="none" stroke="#563335" stroke-width="0.8388" stroke-linecap="round" stroke-miterlimit="10" d="M38.931,84.905
	c-1.433,0.229-1.933-0.731-1.933-0.731"/>
<g>
	<circle fill="#563335" cx="42.496" cy="84.558" r="3.769"/>
	<circle fill="#FFFFFF" cx="44.266" cy="84.395" r="0.985"/>
	<circle fill="#FFFFFF" cx="43.101" cy="85.853" r="0.493"/>
</g>
<g>
	<path fill="#563335" d="M79.394,93.377c0,0-0.197-0.011-0.458-0.085c-0.125-0.046-0.283-0.079-0.431-0.153
		c-0.147-0.073-0.304-0.151-0.461-0.229c-0.29-0.195-0.577-0.397-0.762-0.599c-0.191-0.194-0.294-0.362-0.294-0.362
		s0.197,0.01,0.458,0.084c0.266,0.066,0.58,0.222,0.892,0.383c0.143,0.1,0.286,0.201,0.421,0.295
		c0.135,0.093,0.24,0.217,0.341,0.304C79.289,93.208,79.394,93.377,79.394,93.377z"/>
</g>
<g>
	<path fill="#563335" d="M78.065,94.436c0,0-0.329-0.106-0.785-0.323c-0.222-0.118-0.494-0.233-0.762-0.396
		c-0.267-0.162-0.552-0.333-0.838-0.506c-0.545-0.383-1.087-0.771-1.461-1.112c-0.379-0.332-0.606-0.593-0.606-0.593
		s0.329,0.105,0.784,0.323c0.46,0.209,1.032,0.553,1.599,0.903c0.271,0.194,0.543,0.388,0.797,0.57
		c0.255,0.181,0.469,0.385,0.664,0.542C77.837,94.176,78.065,94.436,78.065,94.436z"/>
</g>
<g>
	<path fill="#563335" d="M74.347,94.147c0,0-0.203-0.019-0.469-0.104c-0.128-0.052-0.29-0.092-0.439-0.173
		c-0.151-0.08-0.311-0.165-0.471-0.25c-0.297-0.209-0.588-0.425-0.776-0.636c-0.194-0.203-0.297-0.377-0.297-0.377
		s0.201,0.018,0.468,0.104c0.272,0.078,0.593,0.248,0.91,0.424c0.146,0.107,0.293,0.214,0.431,0.315
		c0.138,0.099,0.243,0.229,0.346,0.321C74.241,93.973,74.347,94.147,74.347,94.147z"/>
</g>
<g>
	<path fill="#563335" d="M45.76,93.067c0,0-0.196-0.011-0.458-0.085c-0.124-0.046-0.283-0.079-0.43-0.153
		c-0.146-0.073-0.305-0.151-0.461-0.229c-0.291-0.195-0.577-0.397-0.763-0.599c-0.189-0.194-0.294-0.362-0.294-0.362
		s0.197,0.01,0.458,0.084c0.266,0.066,0.58,0.222,0.892,0.383c0.143,0.1,0.287,0.201,0.423,0.295
		c0.135,0.093,0.238,0.217,0.34,0.304C45.657,92.898,45.76,93.067,45.76,93.067z"/>
</g>
<g>
	<path fill="#563335" d="M44.432,94.127c0,0-0.329-0.106-0.785-0.323c-0.222-0.118-0.494-0.233-0.76-0.396
		c-0.268-0.162-0.554-0.333-0.838-0.506c-0.547-0.383-1.088-0.772-1.461-1.112c-0.38-0.332-0.607-0.593-0.607-0.593
		s0.329,0.105,0.785,0.323c0.46,0.209,1.031,0.553,1.599,0.903c0.271,0.194,0.541,0.388,0.795,0.57
		c0.255,0.181,0.469,0.386,0.664,0.543C44.203,93.868,44.432,94.127,44.432,94.127z"/>
</g>
<g>
	<path fill="#563335" d="M40.713,93.837c0,0-0.201-0.019-0.469-0.104c-0.128-0.052-0.29-0.092-0.439-0.172
		c-0.15-0.081-0.311-0.165-0.471-0.251c-0.297-0.209-0.588-0.425-0.776-0.635c-0.192-0.203-0.297-0.377-0.297-0.377
		s0.202,0.018,0.469,0.104c0.271,0.078,0.593,0.247,0.909,0.423c0.147,0.108,0.293,0.215,0.431,0.315
		c0.138,0.1,0.244,0.229,0.346,0.321C40.607,93.664,40.713,93.837,40.713,93.837z"/>
</g>
<path fill="#CCDEE9" d="M32.833,116.606c-3.115-2.393-5.987-4.993-8.448-8.067c-4.668-5.83-6.687-12.874-5.835-20.267
	c1.516-13.179,10.359-24.616,18.615-34.865c-16.61,9.589-26.042,32.961-26.042,43.153c0,10.955,10.893,22.202,29.887,25.454
	C38.388,120.073,35.339,118.531,32.833,116.606z"/>
<path fill="#BFDBEB" d="M18.662,120.198c0,0,5.37,12.022,14.667,13.49c9.996,1.578,11.47-10.299,4.269-12.433
	c-7.199-2.133-12.503-4.645-12.503-4.645L18.662,120.198z"/>
<g>
	<path fill="#FFFFFF" d="M42.412,125.263c0.074,0.355,0.113,0.716,0.117,1.075c0.018,0.867-0.152,1.734-0.51,2.532
		c-0.25,0.538-0.583,1.048-1.011,1.503c-1.304,1.38-3.46,2.25-6.572,1.993c-7.362-0.6-13.099-5.31-14.942-8.497
		c-3.905-6.756,0.959-12.467,6.512-8.84c3.857,2.52,7.455,4.509,11.61,5.385C40.315,120.986,41.977,123.026,42.412,125.263z"/>
	<path fill="#DDF1FC" d="M35.076,128.32c-2.705,0.451-6.258,0.041-8.738-1.186c-2.704-1.338-4.677-4.357-7.676-5.032
		c0.214,0.578,0.487,1.167,0.834,1.766c1.843,3.188,7.579,7.897,14.94,8.5c7.799,0.64,9.607-5.807,6.917-9.546
		C40.453,125.49,37.586,127.899,35.076,128.32z"/>
	<path fill="#563335" d="M42.02,128.87c-0.25,0.538-0.583,1.048-1.011,1.503l-0.169,0.037c-0.236,0.071-0.477,0.071-0.738,0.112
		c-0.256,0.04-0.528,0.036-0.814,0.041c-0.278,0.021-0.568-0.014-0.859-0.025c-0.291-0.017-0.581-0.076-0.877-0.109
		c-0.581-0.1-1.151-0.23-1.672-0.397c-0.521-0.154-0.993-0.342-1.396-0.506c-0.688-0.292-1.151-0.547-1.267-0.615
		c0.109,0.045,0.608,0.246,1.33,0.449c0.413,0.108,0.894,0.235,1.42,0.324c0.521,0.095,1.086,0.151,1.646,0.179
		c0.275-0.003,0.557,0.016,0.827-0.009c0.271-0.019,0.543-0.021,0.796-0.071c0.257-0.04,0.502-0.065,0.723-0.132
		c0.222-0.063,0.45-0.095,0.627-0.17c0.179-0.069,0.344-0.124,0.489-0.18c0.149-0.069,0.293-0.143,0.403-0.196
		c0.228-0.115,0.354-0.179,0.354-0.179C41.89,128.893,41.956,128.877,42.02,128.87z"/>
	<path fill="#563335" d="M42.412,125.263c0.074,0.355,0.113,0.716,0.117,1.075c-0.037,0.015-0.078,0.018-0.123,0.027
		c-0.189,0.02-0.407,0.045-0.647,0.075c-0.239,0.036-0.481,0.007-0.745,0.014c-0.262,0.011-0.529-0.028-0.813-0.054
		c-0.28-0.02-0.56-0.087-0.848-0.14c-0.294-0.046-0.573-0.143-0.859-0.208c-0.563-0.173-1.111-0.375-1.61-0.604
		c-0.502-0.217-0.944-0.459-1.321-0.675c-0.662-0.382-1.092-0.697-1.185-0.77c0.107,0.058,0.571,0.319,1.266,0.61
		c0.396,0.164,0.859,0.343,1.369,0.494c0.508,0.163,1.06,0.286,1.608,0.381c0.278,0.033,0.557,0.088,0.828,0.098
		c0.275,0.015,0.54,0.044,0.795,0.028c0.258-0.005,0.505-0.001,0.737-0.042c0.228-0.034,0.456-0.038,0.638-0.095l0.51-0.115
		C42.229,125.335,42.326,125.295,42.412,125.263z"/>
</g>
<path fill="#BFDBEB" d="M87.11,120.198c0,0-5.37,12.022-14.667,13.49c-9.995,1.578-11.47-10.299-4.269-12.433
	c7.2-2.133,12.502-4.645,12.502-4.645L87.11,120.198z"/>
<g>
	<path fill="#FFFFFF" d="M63.359,125.263c-0.073,0.355-0.112,0.716-0.116,1.075c-0.018,0.867,0.153,1.734,0.509,2.532
		c0.252,0.538,0.584,1.048,1.012,1.503c1.304,1.38,3.462,2.25,6.572,1.993c7.362-0.6,13.099-5.31,14.94-8.497
		c3.905-6.756-0.957-12.467-6.51-8.84c-3.857,2.52-7.455,4.509-11.61,5.385C65.458,120.986,63.795,123.026,63.359,125.263z"/>
	<path fill="#DDF1FC" d="M70.697,128.32c2.705,0.451,6.257,0.041,8.738-1.186c2.703-1.338,4.675-4.357,7.675-5.032
		c-0.214,0.578-0.487,1.167-0.834,1.766c-1.843,3.188-7.579,7.897-14.94,8.5c-7.8,0.64-9.608-5.807-6.917-9.546
		C65.318,125.49,68.187,127.899,70.697,128.32z"/>
	<path fill="#563335" d="M63.752,128.87c0.252,0.538,0.584,1.048,1.012,1.503l0.169,0.037c0.236,0.071,0.479,0.071,0.739,0.112
		c0.255,0.04,0.526,0.036,0.813,0.041c0.278,0.021,0.568-0.014,0.858-0.025c0.293-0.017,0.582-0.076,0.878-0.109
		c0.581-0.1,1.152-0.23,1.672-0.397c0.521-0.154,0.993-0.342,1.396-0.506c0.688-0.292,1.152-0.547,1.267-0.615
		c-0.109,0.045-0.607,0.246-1.329,0.449c-0.413,0.108-0.895,0.235-1.42,0.324c-0.521,0.095-1.088,0.151-1.646,0.179
		c-0.275-0.003-0.556,0.016-0.827-0.009c-0.272-0.019-0.543-0.021-0.796-0.071c-0.256-0.04-0.503-0.065-0.723-0.132
		c-0.222-0.063-0.449-0.095-0.627-0.17c-0.179-0.069-0.344-0.124-0.489-0.18c-0.149-0.069-0.291-0.143-0.403-0.196
		c-0.228-0.115-0.354-0.179-0.354-0.179C63.883,128.893,63.816,128.877,63.752,128.87z"/>
	<path fill="#563335" d="M63.359,125.263c-0.073,0.355-0.112,0.716-0.116,1.075c0.037,0.015,0.079,0.018,0.123,0.027
		c0.189,0.02,0.407,0.045,0.648,0.075c0.239,0.036,0.48,0.007,0.744,0.014c0.262,0.011,0.529-0.028,0.812-0.054
		c0.28-0.02,0.561-0.087,0.85-0.14c0.291-0.046,0.572-0.143,0.856-0.208c0.564-0.173,1.115-0.375,1.612-0.604
		c0.502-0.217,0.943-0.459,1.321-0.675c0.662-0.382,1.093-0.697,1.185-0.77c-0.107,0.058-0.57,0.319-1.266,0.61
		c-0.396,0.164-0.859,0.343-1.37,0.494c-0.507,0.163-1.057,0.286-1.607,0.381c-0.278,0.033-0.555,0.088-0.827,0.098
		c-0.274,0.015-0.54,0.044-0.796,0.028c-0.258-0.005-0.505-0.001-0.737-0.042c-0.229-0.034-0.457-0.038-0.638-0.095l-0.509-0.115
		C63.544,125.335,63.447,125.295,63.359,125.263z"/>
</g>
<path fill="#FFFFFF" d="M14.743,160.379c2.723,11.818,7.319,16.22,15.852,14.115c7.496-1.85,13.608-12.778,7.829-20.577
	c-6.187-8.352-11.497-25.584-16.95-22.088c-1.777-1.405-3.377-2.542-5.227-1.63c-2.723,1.344-2.193,6.006-2.092,8.154
	c-5.884,0.313-0.648,11.558-0.648,11.558S14.107,157.623,14.743,160.379z"/>
<path fill="#F2A3C5" d="M18.415,164.348c1.067,5.213,4.284,9.823,7.876,8.518c3.59-1.307,4.605-7.457,3.537-12.671
	c-1.066-5.215-4.23-16.866-9.156-14.281C16.012,148.36,17.347,159.133,18.415,164.348z"/>
<path fill="#F2A3C5" d="M16.592,137.829c0.349,1.704,1.379,3.216,2.514,2.804c1.137-0.415,1.445-2.415,1.096-4.118
	c-0.347-1.703-1.373-5.511-2.93-4.686C15.799,132.611,16.244,136.126,16.592,137.829z"/>
<path fill="#F2A3C5" d="M22.114,139.586c0.131,1.757,0.957,3.478,2.128,3.324c1.171-0.155,1.727-2.059,1.596-3.816
	c-0.13-1.757-0.664-5.74-2.303-5.272C21.986,134.263,21.984,137.83,22.114,139.586z"/>
<path fill="#F2A3C5" d="M14.061,145.662c0.434,1.361,1.47,2.434,2.469,1.868c0.998-0.566,1.139-2.304,0.704-3.666
	c-0.434-1.362-1.627-4.358-2.977-3.367C12.98,141.437,13.626,144.301,14.061,145.662z"/>
<path fill="#FFFFFF" d="M90.601,160.305c-2.651,11.835-7.222,16.264-15.765,14.211c-7.509-1.804-13.686-12.694-7.956-20.529
	c6.136-8.389,11.34-25.653,16.814-22.19c1.769-1.417,3.363-2.564,5.218-1.663c2.73,1.329,2.229,5.993,2.142,8.141
	c5.886,0.277,0.719,11.553,0.719,11.553S91.219,157.545,90.601,160.305z"/>
<path fill="#F2A3C5" d="M86.953,164.296c-1.036,5.221-4.227,9.85-7.824,8.566c-3.598-1.285-4.651-7.428-3.615-12.649
	c1.034-5.221,4.129-16.891,9.068-14.336C89.257,148.295,87.987,159.075,86.953,164.296z"/>
<path fill="#F2A3C5" d="M88.613,137.768c-0.339,1.705-1.358,3.225-2.497,2.819c-1.138-0.406-1.459-2.405-1.121-4.11
	s1.341-5.519,2.901-4.703C89.373,132.544,88.951,136.063,88.613,137.768z"/>
<path fill="#F2A3C5" d="M83.102,139.558c-0.121,1.757-0.935,3.483-2.106,3.336c-1.173-0.148-1.739-2.048-1.62-3.806
	c0.12-1.758,0.631-5.745,2.271-5.287C83.197,134.236,83.222,137.8,83.102,139.558z"/>
<path fill="#F2A3C5" d="M91.192,145.584c-0.425,1.365-1.455,2.442-2.456,1.883c-1.002-0.56-1.154-2.296-0.728-3.661
	c0.425-1.364,1.6-4.368,2.956-3.385C92.247,141.353,91.619,144.22,91.192,145.584z"/>
<path fill="#FFFFFF" d="M17.104,29.024c3.871-10.341,22.274-9.471,21.083,2.345C36.467,53.196,20.333,83.41,16.245,82.056
	C11.977,80.644,8.38,52.337,17.104,29.024z"/>
<path fill="#DDF1FC" d="M33.512,22.916c2.513,9.745-2.104,20.522-5.233,29.939c-2.049,6.167-3.79,13.578-7.733,18.866
	c-1.905,2.559-4.217,4.518-6.813,6.111c0.732,2.413,1.608,3.925,2.513,4.224c4.088,1.354,20.222-28.86,21.942-50.687
	C38.613,27.147,36.532,24.331,33.512,22.916z"/>
</svg>
