<svg width="10" height="12" viewBox="0 0 10 12" fill="none" xmlns="http://www.w3.org/2000/svg">
<path d="M1 3H1.90909M1.90909 3H9.18182M1.90909 3V10C1.90909 10.2652 2.00487 10.5196 2.17536 10.7071C2.34584 10.8946 2.57708 11 2.81818 11H7.36364C7.60474 11 7.83597 10.8946 8.00646 10.7071C8.17695 10.5196 8.27273 10.2652 8.27273 10V3H1.90909ZM3.27273 3V2C3.27273 1.73478 3.36851 1.48043 3.53899 1.29289C3.70948 1.10536 3.94071 1 4.18182 1H6C6.24111 1 6.47234 1.10536 6.64282 1.29289C6.81331 1.48043 6.90909 1.73478 6.90909 2V3M4.18182 5.5V8.5M6 5.5V8.5" stroke="white" stroke-width="0.6" stroke-linecap="round" stroke-linejoin="round"/>
</svg>
